<svg width="18" height="18" viewBox="0 0 18 18" fill="none" xmlns="http://www.w3.org/2000/svg">
<path fill-rule="evenodd" clip-rule="evenodd" d="M0 9.01352C0 4.27241 3.789 0 9.018 0C14.13 0 18 4.19129 18 8.98648C18 14.5478 13.464 18 9 18C7.524 18 5.886 17.6034 4.572 16.8282C4.113 16.5488 3.726 16.3415 3.231 16.5038L1.413 17.0446C0.954 17.1888 0.54 16.8282 0.675 16.3415L1.278 14.3225C1.377 14.0431 1.359 13.7456 1.215 13.5113C0.441 12.0871 0 10.5278 0 9.01352ZM7.83018 9.01346C7.83018 9.65342 8.34318 10.1672 8.98218 10.1762C9.62118 10.1762 10.1342 9.65342 10.1342 9.02247C10.1342 8.38251 9.62118 7.86874 8.98218 7.86874C8.35218 7.85973 7.83018 8.38251 7.83018 9.01346ZM11.9796 9.02255C11.9796 9.6535 12.4926 10.1763 13.1316 10.1763C13.7706 10.1763 14.2836 9.6535 14.2836 9.02255C14.2836 8.38259 13.7706 7.86882 13.1316 7.86882C12.4926 7.86882 11.9796 8.38259 11.9796 9.02255ZM4.83286 10.1763C4.20286 10.1763 3.68086 9.65352 3.68086 9.02258C3.68086 8.38262 4.19386 7.86885 4.83286 7.86885C5.47186 7.86885 5.98486 8.38262 5.98486 9.02258C5.98486 9.65352 5.47186 10.1673 4.83286 10.1763Z" fill="white"/>
</svg>
