<svg width="33" height="32" viewBox="0 0 33 32" fill="none" xmlns="http://www.w3.org/2000/svg">
<g clip-path="url(#clip0_3567_387)">
<g clip-path="url(#clip1_3567_387)">
<g clip-path="url(#clip2_3567_387)">
<mask id="mask0_3567_387" style="mask-type:luminance" maskUnits="userSpaceOnUse" x="0" y="0" width="33" height="32">
<path d="M32.5 0H0.5V32H32.5V0Z" fill="white"/>
</mask>
<g mask="url(#mask0_3567_387)">
<path d="M17.8572 2.49738C18.2122 2.0743 18.843 2.01912 19.266 2.37412L26.4887 8.43469C26.9118 8.78969 26.967 9.42044 26.612 9.84351L11.6643 27.6575C11.4964 27.8576 11.2569 27.984 10.997 28.0098L4.19462 28.6851C3.63104 28.741 3.13352 28.3182 3.09783 27.753L2.67289 21.0228C2.6567 20.7664 2.73976 20.5137 2.90486 20.317L17.8572 2.49738Z" fill="white" stroke="url(#paint0_linear_3567_387)" stroke-width="4"/>
<path d="M19.2289 3.97455L24.9195 8.74955C25.2368 9.0158 25.2782 9.48887 25.012 9.80617L10.9689 26.542C10.843 26.6921 10.6634 26.7869 10.4684 26.8063L4.32922 27.4157L3.94583 21.3434C3.93369 21.1511 3.99598 20.9616 4.1198 20.814L18.1723 4.067C18.4385 3.74969 18.9116 3.7083 19.2289 3.97455Z" fill="white" stroke="#161616" stroke-width="2.5"/>
<path d="M17.1475 5.12115C17.5025 4.69808 18.1333 4.6429 18.5563 4.9979L24.0281 9.58924C24.4511 9.94424 24.5063 10.575 24.1513 10.998L20.6812 15.1336C20.3262 15.5567 19.6954 15.6118 19.2724 15.2568L13.8006 10.6655C13.3775 10.3105 13.3224 9.67978 13.6774 9.2567L17.1475 5.12115Z" fill="#161616"/>
<path d="M18.7861 25.6428C18.7861 25.3667 19.01 25.1428 19.2861 25.1428H29.7147C29.9909 25.1428 30.2147 25.3667 30.2147 25.6428V26.9285C30.2147 27.2047 29.9909 27.4285 29.7147 27.4285H19.2861C19.01 27.4285 18.7861 27.2047 18.7861 26.9285V25.6428Z" fill="#161616"/>
<path d="M23.3574 19.9287C23.3574 19.6525 23.5813 19.4287 23.8574 19.4287H32.0003C32.2764 19.4287 32.5003 19.6525 32.5003 19.9287V21.2144C32.5003 21.4905 32.2764 21.7144 32.0003 21.7144H23.8574C23.5813 21.7144 23.3574 21.4905 23.3574 21.2144V19.9287Z" fill="#161616"/>
<path d="M29.0713 14.2141C29.0713 13.938 29.2951 13.7141 29.5713 13.7141H31.9999C32.276 13.7141 32.4999 13.938 32.4999 14.2141V15.4998C32.4999 15.776 32.276 15.9998 31.9999 15.9998H29.5713C29.2951 15.9998 29.0713 15.776 29.0713 15.4998V14.2141Z" fill="#161616"/>
</g>
</g>
</g>
</g>
<defs>
<linearGradient id="paint0_linear_3567_387" x1="18.5" y1="1.73132" x2="27.1483" y2="9.61177" gradientUnits="userSpaceOnUse">
<stop stop-color="#FF7448"/>
<stop offset="0.567708" stop-color="#FF4848"/>
<stop offset="1" stop-color="#6248FF"/>
</linearGradient>
<clipPath id="clip0_3567_387">
<rect width="32" height="32" fill="white" transform="translate(0.5)"/>
</clipPath>
<clipPath id="clip1_3567_387">
<rect width="32" height="32" fill="white" transform="translate(0.5)"/>
</clipPath>
<clipPath id="clip2_3567_387">
<rect width="32" height="32" fill="white" transform="translate(0.5)"/>
</clipPath>
</defs>
</svg>
