<svg width="20" height="20" viewBox="0 0 20 20" fill="none" xmlns="http://www.w3.org/2000/svg">
<g clip-path="url(#clip0_83_16)">
<path d="M13.75 0H6.25C4.5924 0 3.00269 0.65848 1.83058 1.83058C0.65848 3.00269 0 4.5924 0 6.25L0 13.75C0 15.4076 0.65848 16.9973 1.83058 18.1694C3.00269 19.3415 4.5924 20 6.25 20H13.75C15.4076 20 16.9973 19.3415 18.1694 18.1694C19.3415 16.9973 20 15.4076 20 13.75V6.25C20 4.5924 19.3415 3.00269 18.1694 1.83058C16.9973 0.65848 15.4076 0 13.75 0ZM18.125 13.75C18.125 16.1625 16.1625 18.125 13.75 18.125H6.25C3.8375 18.125 1.875 16.1625 1.875 13.75V6.25C1.875 3.8375 3.8375 1.875 6.25 1.875H13.75C16.1625 1.875 18.125 3.8375 18.125 6.25V13.75Z" fill="url(#paint0_linear_83_16)"/>
<path d="M10 5C8.67392 5 7.40215 5.52678 6.46447 6.46447C5.52678 7.40215 5 8.67392 5 10C5 11.3261 5.52678 12.5979 6.46447 13.5355C7.40215 14.4732 8.67392 15 10 15C11.3261 15 12.5979 14.4732 13.5355 13.5355C14.4732 12.5979 15 11.3261 15 10C15 8.67392 14.4732 7.40215 13.5355 6.46447C12.5979 5.52678 11.3261 5 10 5ZM10 13.125C9.1715 13.124 8.37722 12.7944 7.79139 12.2086C7.20555 11.6228 6.87599 10.8285 6.875 10C6.875 8.27625 8.2775 6.875 10 6.875C11.7225 6.875 13.125 8.27625 13.125 10C13.125 11.7225 11.7225 13.125 10 13.125Z" fill="url(#paint1_linear_83_16)"/>
<path d="M15.375 5.29148C15.7429 5.29148 16.0412 4.99319 16.0412 4.62523C16.0412 4.25727 15.7429 3.95898 15.375 3.95898C15.007 3.95898 14.7087 4.25727 14.7087 4.62523C14.7087 4.99319 15.007 5.29148 15.375 5.29148Z" fill="url(#paint2_linear_83_16)"/>
</g>
<defs>
<linearGradient id="paint0_linear_83_16" x1="1.83" y1="18.17" x2="18.17" y2="1.83" gradientUnits="userSpaceOnUse">
<stop stop-color="#FFC107"/>
<stop offset="0.507" stop-color="#F44336"/>
<stop offset="0.99" stop-color="#9C27B0"/>
</linearGradient>
<linearGradient id="paint1_linear_83_16" x1="6.465" y1="13.535" x2="13.535" y2="6.465" gradientUnits="userSpaceOnUse">
<stop stop-color="#FFC107"/>
<stop offset="0.507" stop-color="#F44336"/>
<stop offset="0.99" stop-color="#9C27B0"/>
</linearGradient>
<linearGradient id="paint2_linear_83_16" x1="14.9037" y1="5.09648" x2="15.8462" y2="4.15398" gradientUnits="userSpaceOnUse">
<stop stop-color="#FFC107"/>
<stop offset="0.507" stop-color="#F44336"/>
<stop offset="0.99" stop-color="#9C27B0"/>
</linearGradient>
<clipPath id="clip0_83_16">
<rect width="20" height="20" fill="white"/>
</clipPath>
</defs>
</svg>
