<svg width="20" height="20" viewBox="0 0 20 20" fill="none" xmlns="http://www.w3.org/2000/svg">
<g clip-path="url(#clip0_83_37)">
<path d="M15.5109 0H4.48909C2.00983 0 0 2.00983 0 4.48909V15.5109C0 17.9902 2.00983 20 4.48909 20H15.5109C17.9902 20 20 17.9902 20 15.5109V4.48909C20 2.00983 17.9902 0 15.5109 0Z" fill="#0B86CA"/>
<path d="M5.54198 8.31314H7.62027V15.0191H5.54198V8.31314ZM6.60191 4.98096C6.84002 4.98096 7.07279 5.05149 7.27087 5.18363C7.46894 5.31578 7.62344 5.50363 7.71488 5.72349C7.80631 5.94334 7.83058 6.18535 7.78463 6.41899C7.73868 6.65262 7.62456 6.86741 7.45668 7.03626C7.28879 7.20511 7.07466 7.32046 6.84129 7.36775C6.60792 7.41504 6.36578 7.39216 6.1454 7.30198C5.92502 7.21181 5.73629 7.05839 5.60301 6.86108C5.46973 6.66376 5.39787 6.43139 5.3965 6.19329C5.39559 6.03441 5.4261 5.87692 5.48626 5.72987C5.54643 5.58283 5.63508 5.44912 5.7471 5.33646C5.85912 5.22379 5.99231 5.13438 6.13901 5.07337C6.28571 5.01236 6.44303 4.98095 6.60191 4.98096Z" fill="white"/>
<path d="M8.95053 8.31296H10.9526V9.2274C11.153 8.88538 11.4425 8.6042 11.7903 8.41387C12.138 8.22353 12.5309 8.13119 12.927 8.14669C15.0053 8.14669 15.4278 9.53222 15.4278 11.3403V15.0189H13.3496V11.7768C13.3496 11.0009 13.3496 9.99637 12.2689 9.99637C11.1881 9.99637 11.0219 10.8415 11.0219 11.7144V15.0327H8.9436L8.95053 8.31296Z" fill="white"/>
</g>
<defs>
<clipPath id="clip0_83_37">
<rect width="20" height="20" fill="white"/>
</clipPath>
</defs>
</svg>
