<svg width="32" height="32" viewBox="0 0 32 32" fill="none" xmlns="http://www.w3.org/2000/svg">
<g clip-path="url(#clip0_3567_402)">
<g clip-path="url(#clip1_3567_402)">
<path d="M3.42871 16.0001C3.42871 9.05713 9.05712 3.42871 16.0001 3.42871C22.9431 3.42871 28.5715 9.05713 28.5715 16.0001C28.5715 22.9431 22.9431 28.5715 16.0001 28.5715C9.05712 28.5715 3.42871 22.9431 3.42871 16.0001Z" fill="white" stroke="url(#paint0_linear_3567_402)" stroke-width="4"/>
<path d="M16.0001 27.3215C9.74748 27.3215 4.67871 22.2528 4.67871 16.0001C4.67871 9.74748 9.74748 4.67871 16.0001 4.67871C22.2527 4.67871 27.3215 9.74748 27.3215 16.0001C27.3215 22.2528 22.2527 27.3215 16.0001 27.3215Z" fill="white" stroke="#161616" stroke-width="2.5"/>
<path d="M11.3022 13.1378C11.3022 11.1644 12.8667 9.95555 14.7689 9.67111V8.17778C14.7689 8.05333 14.8222 8 14.9467 8H16.6533C16.7778 8 16.8311 8.05333 16.8311 8.17778V9.72444C18.9111 10.1511 20.1911 11.6978 20.2444 13.3156C20.2444 13.44 20.1911 13.4933 20.0667 13.4933H18.1822C18.0756 13.4933 18.0222 13.44 18.0044 13.3156C17.88 12.6222 17.4533 12.1067 16.8311 11.84V15.1111C18.8222 15.68 20.6178 16.6044 20.6178 18.4533C20.6178 20.6756 19.16 22.0444 16.8311 22.3289V23.8222C16.8311 23.9467 16.7778 24 16.6533 24H14.9467C14.8222 24 14.7689 23.9467 14.7689 23.8222V22.2933C12.5467 21.92 11 20.2133 11 18.2044C11 18.08 11.0533 18.0267 11.1778 18.0267H13.0444C13.1511 18.0267 13.2044 18.08 13.2222 18.2044C13.3111 19.2711 13.8622 19.8933 14.7689 20.1778V16.5867C12.5822 15.9289 11.3022 14.9689 11.3022 13.1378ZM18.3778 18.6844C18.3778 18.0444 17.8089 17.5467 16.8311 17.1733V20.2667C17.8267 20.0533 18.3778 19.4489 18.3778 18.6844ZM13.5422 13.0311C13.5422 13.6711 14.0044 14.08 14.7689 14.4178V11.7333C14.04 11.9289 13.5422 12.3378 13.5422 13.0311Z" fill="#161616"/>
</g>
</g>
<defs>
<linearGradient id="paint0_linear_3567_402" x1="3.42871" y1="3.42871" x2="28.8861" y2="6.21292" gradientUnits="userSpaceOnUse">
<stop stop-color="#FF7448"/>
<stop offset="0.567708" stop-color="#FF4848"/>
<stop offset="1" stop-color="#6248FF"/>
</linearGradient>
<clipPath id="clip0_3567_402">
<rect width="32" height="32" fill="white"/>
</clipPath>
<clipPath id="clip1_3567_402">
<rect width="32" height="32" fill="white"/>
</clipPath>
</defs>
</svg>
