<svg width="32" height="32" viewBox="0 0 32 32" fill="none" xmlns="http://www.w3.org/2000/svg">
<path d="M27.9841 14.25L6.98413 2.26375C6.63015 2.06518 6.22413 1.97901 5.82 2.01669C5.41588 2.05436 5.03279 2.2141 4.72161 2.47468C4.41043 2.73526 4.1859 3.08435 4.07784 3.47558C3.96978 3.8668 3.98331 4.28165 4.11663 4.665L7.99163 15.9737C7.99113 15.9779 7.99113 15.9821 7.99163 15.9862C7.99093 15.9904 7.99093 15.9946 7.99163 15.9987L4.11663 27.3325C4.00986 27.6341 3.97699 27.9568 4.02077 28.2737C4.06456 28.5906 4.18372 28.8924 4.36825 29.1537C4.55279 29.415 4.79731 29.6282 5.08131 29.7755C5.3653 29.9228 5.68048 29.9997 6.00038 30C6.34747 29.9991 6.68845 29.9087 6.99038 29.7375L27.9791 17.7312C28.2887 17.5578 28.5466 17.3051 28.7263 16.9991C28.906 16.6931 29.0011 16.3448 29.0017 15.99C29.0023 15.6351 28.9085 15.2864 28.7299 14.9798C28.5513 14.6731 28.2944 14.4195 27.9854 14.245L27.9841 14.25ZM6.00038 28V27.9887L9.76788 17H17.0004C17.2656 17 17.52 16.8946 17.7075 16.7071C17.895 16.5196 18.0004 16.2652 18.0004 16C18.0004 15.7348 17.895 15.4804 17.7075 15.2929C17.52 15.1054 17.2656 15 17.0004 15H9.77788L6.00788 4.015L6.00038 4L27.0004 15.9787L6.00038 28Z" fill="#343330"/>
</svg>
