<svg width="23" height="23" viewBox="0 0 23 23" fill="none" xmlns="http://www.w3.org/2000/svg">
<path d="M19.4354 2.80269C18.9352 2.2893 18.1949 2.09804 17.5046 2.29937L1.408 6.98023C0.679698 7.18256 0.163487 7.76339 0.0244302 8.50126C-0.117628 9.25221 0.378575 10.2055 1.02684 10.6041L6.0599 13.6975C6.57611 14.0146 7.24238 13.9351 7.66956 13.5042L13.4329 7.70501C13.723 7.40301 14.2032 7.40301 14.4934 7.70501C14.7835 7.99693 14.7835 8.47005 14.4934 8.77204L8.71999 14.5723C8.29181 15.0021 8.21178 15.6715 8.52691 16.191L11.6022 21.2745C11.9623 21.8784 12.5826 22.2207 13.2628 22.2207C13.3429 22.2207 13.4329 22.2207 13.513 22.2106C14.2933 22.11 14.9135 21.5765 15.1436 20.8215L19.9156 4.74549C20.1257 4.06098 19.9356 3.31607 19.4354 2.80269Z" fill="#FBFBFB"/>
</svg>
