<svg width="33" height="32" viewBox="0 0 33 32" fill="none" xmlns="http://www.w3.org/2000/svg">
<g clip-path="url(#clip0_3567_411)">
<g clip-path="url(#clip1_3567_411)">
<g clip-path="url(#clip2_3567_411)">
<path d="M7.86693 7.31955C8.0506 7.03167 8.36847 6.85742 8.70996 6.85742H29.3284C29.8807 6.85742 30.3284 7.30513 30.3284 7.85742V24.1431C30.3284 24.6954 29.8807 25.1431 29.3284 25.1431H8.70996C8.36847 25.1431 8.0506 24.9688 7.86693 24.681L2.67162 16.5381C2.46232 16.2101 2.46232 15.7904 2.67162 15.4624L7.86693 7.31955Z" fill="white" stroke="url(#paint0_linear_3567_411)" stroke-width="3.5"/>
<path d="M9.25846 8.10742H28.3288C28.743 8.10742 29.0788 8.4432 29.0788 8.85742V23.1431C29.0788 23.5573 28.743 23.8931 28.3288 23.8931H9.25846C9.00235 23.8931 8.76395 23.7624 8.62619 23.5465L4.0689 16.4036C3.91193 16.1576 3.91193 15.8429 4.0689 15.5968L8.62619 8.45402C8.76395 8.23811 9.00235 8.10742 9.25846 8.10742Z" fill="white" stroke="#161616" stroke-width="2.5"/>
<path d="M11.9287 13.0713C11.9287 12.7952 12.1525 12.5713 12.4287 12.5713H22.8572C23.1334 12.5713 23.3572 12.7952 23.3572 13.0713V14.357C23.3572 14.6332 23.1334 14.857 22.8572 14.857H12.4287C12.1525 14.857 11.9287 14.6332 11.9287 14.357V13.0713Z" fill="#161616"/>
<path d="M11.9287 17.6426C11.9287 17.3665 12.1525 17.1426 12.4287 17.1426H18.2858C18.562 17.1426 18.7858 17.3665 18.7858 17.6426V18.9283C18.7858 19.2045 18.562 19.4283 18.2858 19.4283H12.4287C12.1525 19.4283 11.9287 19.2045 11.9287 18.9283V17.6426Z" fill="#161616"/>
</g>
</g>
</g>
<defs>
<linearGradient id="paint0_linear_3567_411" x1="2.32844" y1="6.85742" x2="30.2352" y2="11.5309" gradientUnits="userSpaceOnUse">
<stop stop-color="#FF7448"/>
<stop offset="0.567708" stop-color="#FF4848"/>
<stop offset="1" stop-color="#6248FF"/>
</linearGradient>
<clipPath id="clip0_3567_411">
<rect width="32" height="32" fill="white" transform="translate(0.5)"/>
</clipPath>
<clipPath id="clip1_3567_411">
<rect width="32" height="32" fill="white" transform="translate(0.5)"/>
</clipPath>
<clipPath id="clip2_3567_411">
<rect width="32" height="32" fill="white" transform="translate(0.5)"/>
</clipPath>
</defs>
</svg>
